<svg id="Layer_1" data-name="Layer 1" xmlns="http://www.w3.org/2000/svg" viewBox="0 0 248.64 71.8"><defs><style>.cls-1{fill:#2e1118;}.cls-2{font-size:57.62px;font-family:ArgonPERSONAL-Regular, Argon PERSONAL;}.cls-2,.cls-3{fill:#d55d79;}</style></defs><title>Call Card</title><path class="cls-1" d="M111.22,54.44h-.55a3.92,3.92,0,0,1-.08-1,2.24,2.24,0,0,1-2.17,1.11c-2,0-3-1.5-3-3.44s1.1-3.58,3.13-3.58a2.48,2.48,0,0,1,2.71,2.05h-.69a1.93,1.93,0,0,0-2-1.44c-1.66,0-2.37,1.3-2.37,2.93s.7,2.86,2.31,2.86,2.07-1.07,2.07-2.42v-.07h-2.08V50.8h2.75Z"/><path class="cls-1" d="M123.66,52.22l-.81,2.22h-.7l2.47-6.83h.85l2.58,6.83h-.75l-.83-2.22Zm2.61-.62c-.71-1.92-1.09-2.89-1.23-3.38h0c-.17.55-.59,1.73-1.16,3.38Z"/><path class="cls-1" d="M139,47.61h.7v6.21h3.62l-.11.62H139Z"/><path class="cls-1" d="M154.13,47.61h.7v6.21h3.62l-.11.62h-4.21Z"/><path class="cls-1" d="M173.41,51.16H170v2.66h3.77l-.09.62h-4.37V47.61h4.3v.62H170v2.31h3.44Z"/><path class="cls-1" d="M185.54,51.33v3.11h-.7V47.61h2.55c1.37,0,2.1.74,2.1,1.81a1.54,1.54,0,0,1-1.23,1.6c.64.16,1.12.6,1.12,1.77v.28a4.38,4.38,0,0,0,.09,1.37h-.7a4.8,4.8,0,0,1-.1-1.44v-.17c0-1-.31-1.5-1.58-1.5Zm0-.61h1.58c1.13,0,1.64-.42,1.64-1.26s-.52-1.24-1.52-1.24h-1.7Z"/><path class="cls-1" d="M202.48,54.44V51.9a.43.43,0,0,0,0-.17L200,47.61h.81c.65,1.13,1.75,3,2.05,3.59.3-.55,1.42-2.45,2.11-3.59h.76l-2.52,4.15a.32.32,0,0,0,0,.16v2.52Z"/><path class="cls-1" d="M104.16,20.33V41a.26.26,0,0,1-.27.27H99.23a.84.84,0,0,1-.66-.35L90,26a.27.27,0,0,0-.51.15v15.1H84.92V15.91h4.26a.69.69,0,0,1,.63.4l9.31,16.28a.27.27,0,0,0,.51-.12V15.91h4.53Z"/><path class="cls-1" d="M156.74,28.57a13.25,13.25,0,1,1-13.25-13.25A13.26,13.26,0,0,1,156.74,28.57Zm-4.61,0a8.64,8.64,0,1,0-8.64,8.67A8.64,8.64,0,0,0,152.13,28.57Z"/><path class="cls-1" d="M166,41.26h-4.49V20.33a.31.31,0,0,0-.32-.28h-2.68a.27.27,0,0,1-.27-.27V16.19a.27.27,0,0,1,.27-.28h8.64a.88.88,0,0,1,.86.63l5.68,15.58a.35.35,0,0,0,.63,0L180,16.54a1,1,0,0,1,.87-.63h8.67a.27.27,0,0,1,.28.28v3.59a.27.27,0,0,1-.28.27h-2.72a.27.27,0,0,0-.28.28V41.26H182V25.41a.3.3,0,0,0-.59-.11l-5.28,15.49a.69.69,0,0,1-.67.47h-2.84a.76.76,0,0,1-.71-.47L166.67,25.3a.33.33,0,0,0-.63.11V36.85"/><path class="cls-1" d="M200.64,20.33V41.26h-4.53V20.33a.3.3,0,0,0-.27-.28h-2.73a.27.27,0,0,1-.27-.27V16.19a.27.27,0,0,1,.27-.28h7.53Z"/><path class="cls-1" d="M203.82,15.91h5.39l5.48,8.55a.24.24,0,0,0,.4,0l5.38-8.55h5.42l-8.58,12.32a.26.26,0,0,0,0,.27l8.94,12.76h-5.43l-5.73-9a.24.24,0,0,0-.4,0l-5.78,9h-5.37l9-12.78a.22.22,0,0,0,0-.27Z"/><path class="cls-1" d="M128.29,36.57,120.75,16.3a.58.58,0,0,0-.54-.38h-3a.58.58,0,0,0-.55.38L109.1,36.57c-.14.32-1.9,4.8-1.9,4.8h5l1.62-4.65.64-1.72a.66.66,0,0,1,.63-.44h7.29A.69.69,0,0,1,123,35l.63,1.72c.08.21,1.61,4.65,1.61,4.65h5S128.41,36.89,128.29,36.57Zm-7.44-6.14h-4.31a.3.3,0,0,1-.27-.41l2.2-6.77a.25.25,0,0,1,.21-.17.25.25,0,0,1,.23.17l2.2,6.77A.3.3,0,0,1,120.85,30.43Z"/><text class="cls-2" transform="translate(29.21 55.08)">N</text><path class="cls-3" d="M72.46,63.4H22.39V5.19H72.46ZM24.31,61.48H70.54V7.11H24.31Z"/></svg>