<svg id="Layer_1" data-name="Layer 1" xmlns="http://www.w3.org/2000/svg" viewBox="0 0 248.64 71.8"><defs><style>.cls-1{fill:#2e1118;}.cls-2{font-size:52.23px;font-family:ArgonPERSONAL-Regular, Argon PERSONAL;}.cls-2,.cls-3{fill:#d55d79;}</style></defs><title>Naomix_3 copy 11</title><path class="cls-1" d="M96.74,59.61H96a6.14,6.14,0,0,1-.1-1.28,2.81,2.81,0,0,1-2.73,1.39c-2.48,0-3.77-1.88-3.77-4.33s1.38-4.51,3.94-4.51a3.15,3.15,0,0,1,3.43,2.59h-.88a2.42,2.42,0,0,0-2.57-1.82c-2.09,0-3,1.63-3,3.69,0,1.88.88,3.61,2.92,3.61s2.6-1.35,2.6-3.05v-.1H93.26V55h3.48Z"/><path class="cls-1" d="M112.41,56.82l-1,2.79h-.88L113.63,51h1.07L118,59.61h-1l-1-2.79ZM115.7,56c-.89-2.43-1.37-3.65-1.55-4.26h0c-.21.69-.74,2.18-1.46,4.26Z"/><path class="cls-1" d="M131.74,51h.88v7.84h4.57l-.14.77h-5.31Z"/><path class="cls-1" d="M150.83,51h.88v7.84h4.56l-.14.77h-5.3Z"/><path class="cls-1" d="M175.13,55.48h-4.35v3.36h4.76l-.12.77h-5.51V51h5.43v.78h-4.56V54.7h4.35Z"/><path class="cls-1" d="M190.41,55.69v3.92h-.88V51h3.21c1.73,0,2.65.94,2.65,2.28a2,2,0,0,1-1.55,2c.81.2,1.41.75,1.41,2.23v.35a5.92,5.92,0,0,0,.11,1.72h-.87a5.7,5.7,0,0,1-.14-1.82v-.2c0-1.33-.38-1.9-2-1.9Zm0-.77h2c1.42,0,2.07-.53,2.07-1.59s-.65-1.56-1.91-1.56h-2.15Z"/><path class="cls-1" d="M211.77,59.61v-3.2a.47.47,0,0,0-.06-.21L208.65,51h1c.83,1.44,2.21,3.84,2.59,4.53.37-.69,1.78-3.08,2.66-4.53h1l-3.17,5.24a.35.35,0,0,0,0,.2v3.17Z"/><path class="cls-1" d="M87.84,16.62v26a.33.33,0,0,1-.35.34H81.63a1.07,1.07,0,0,1-.84-.44L70,23.78a.34.34,0,0,0-.64.19V43H63.59V11.05H69a.89.89,0,0,1,.8.5L81.48,32.07a.34.34,0,0,0,.65-.15V11.05h5.71Z"/><path class="cls-1" d="M154.11,27a16.7,16.7,0,1,1-16.7-16.69A16.71,16.71,0,0,1,154.11,27Zm-5.82,0a10.88,10.88,0,1,0-10.88,10.93A10.87,10.87,0,0,0,148.29,27Z"/><path class="cls-1" d="M165.84,43h-5.67V16.62a.38.38,0,0,0-.39-.35H156.4a.34.34,0,0,1-.35-.35V11.4a.34.34,0,0,1,.35-.35h10.88a1.11,1.11,0,0,1,1.09.8l7.16,19.63a.43.43,0,0,0,.79,0l7.11-19.63a1.21,1.21,0,0,1,1.09-.8h10.93a.34.34,0,0,1,.35.35v4.52a.34.34,0,0,1-.35.35H192a.34.34,0,0,0-.35.35V43H186V23a.38.38,0,0,0-.74-.15l-6.66,19.53a.86.86,0,0,1-.85.59h-3.57a1,1,0,0,1-.9-.59l-6.61-19.53a.41.41,0,0,0-.79.15V37.44"/><path class="cls-1" d="M209.45,16.62V43h-5.72V16.62a.37.37,0,0,0-.34-.35H200a.34.34,0,0,1-.35-.35V11.4a.34.34,0,0,1,.35-.35h9.49Z"/><path class="cls-1" d="M213.45,11.05h6.8l6.9,10.77a.29.29,0,0,0,.5,0l6.78-10.77h6.84L230.46,26.58a.3.3,0,0,0,0,.34L241.72,43h-6.84l-7.23-11.3a.29.29,0,0,0-.5,0L219.87,43h-6.78l11.32-16.11a.3.3,0,0,0,0-.34Z"/><path class="cls-1" d="M118.25,37.09l-9.5-25.55a.75.75,0,0,0-.68-.48h-3.83a.77.77,0,0,0-.7.48L94.06,37.09c-.17.41-2.39,6-2.39,6h6.25s2-5.59,2-5.86l.8-2.17a.83.83,0,0,1,.79-.55h9.19a.88.88,0,0,1,.8.55l.79,2.17c.1.27,2,5.86,2,5.86h6.25S118.4,37.5,118.25,37.09Zm-9.38-7.74h-5.43a.36.36,0,0,1-.33-.51l2.77-8.54a.31.31,0,0,1,.26-.22.33.33,0,0,1,.29.22l2.78,8.54A.38.38,0,0,1,108.87,29.35Z"/><text class="cls-2" transform="translate(13.09 53.29)">N</text><path class="cls-3" d="M52.29,60.82H6.92V8.07H52.29ZM8.66,59.09H50.55V9.81H8.66Z"/></svg>